<svg viewBox="0 0 220 60" width="220" height="60" xmlns="http://www.w3.org/2000/svg"><defs><style>.wordmark{font-family:Georgia,serif;font-style:italic;font-weight:700;font-size:26px;fill:#97C459;}</style></defs><!-- Badge icon --><g transform="scale(0.18) translate(10, 10)"><circle cx="150" cy="150" r="148" fill="#639922"/><circle cx="150" cy="150" r="136" fill="#173404"/><circle cx="150" cy="150" r="128" fill="#3B6D11"/><circle cx="150" cy="150" r="114" fill="#173404"/><polygon points="108,130 124,68 150,116" fill="#C0DD97"/><polygon points="150,116 176,68 192,130" fill="#C0DD97"/><polygon points="115,126 126,84 144,116" fill="#3B6D11"/><polygon points="156,116 174,84 185,126" fill="#3B6D11"/><circle cx="150" cy="160" r="66" fill="#C0DD97"/><circle cx="150" cy="166" r="44" fill="#173404"/><ellipse cx="136" cy="156" rx="10" ry="12" fill="#C0DD97"/><ellipse cx="164" cy="156" rx="10" ry="12" fill="#C0DD97"/><circle cx="139" cy="152" r="3.5" fill="#EAF3DE"/><circle cx="167" cy="152" r="3.5" fill="#EAF3DE"/><polygon points="150,172 143,180 157,180" fill="#FAC775"/><path d="M143,181 Q150,190 157,181" fill="none" stroke="#3B6D11" stroke-width="2.5" stroke-linecap="round"/><line x1="105" y1="172" x2="136" y2="175" stroke="#3B6D11" stroke-width="1.8" stroke-linecap="round"/><line x1="103" y1="180" x2="136" y2="180" stroke="#3B6D11" stroke-width="1.8" stroke-linecap="round"/><line x1="164" y1="175" x2="195" y2="172" stroke="#3B6D11" stroke-width="1.8" stroke-linecap="round"/><line x1="164" y1="180" x2="197" y2="180" stroke="#3B6D11" stroke-width="1.8" stroke-linecap="round"/><circle cx="150" cy="230" r="20" fill="#C0DD97"/><circle cx="129" cy="220" r="12" fill="#C0DD97"/><circle cx="171" cy="220" r="12" fill="#C0DD97"/><circle cx="140" cy="214" r="10" fill="#C0DD97"/><circle cx="160" cy="214" r="10" fill="#C0DD97"/><rect x="60" y="146" width="8" height="8" rx="1" transform="rotate(45 64 150)" fill="#FAC775"/><rect x="232" y="146" width="8" height="8" rx="1" transform="rotate(45 236 150)" fill="#FAC775"/></g><!-- Wordmark --><text x="62" y="40" class="wordmark"><tspan fill="#97C459">Grab</tspan><tspan fill="#EAF3DE">Cat</tspan></text></svg>
